HIERARCHY
ROOT Hips
{
  OFFSET 0 0 0
  CHANNELS 6 Xposition Yposition Zposition Zrotation Xrotation Yrotation
  JOINT Spine
  {
    OFFSET 0 10 0
    CHANNELS 3 Zrotation Xrotation Yrotation
    JOINT Neck
    {
      OFFSET 0 30 0
      CHANNELS 3 Zrotation Xrotation Yrotation
      JOINT Head
      {
        OFFSET 0 8 0
        CHANNELS 3 Zrotation Xrotation Yrotation
        End Site
        {
          OFFSET 0 10 0
        }
      }
    }
    JOINT LeftArm
    {
      OFFSET 15 30 0
      CHANNELS 3 Zrotation Xrotation Yrotation
      JOINT LeftForeArm
      {
        OFFSET 25 0 0
        CHANNELS 3 Zrotation Xrotation Yrotation
        JOINT LeftHand
        {
          OFFSET 25 0 0
          CHANNELS 3 Zrotation Xrotation Yrotation
          End Site
          {
            OFFSET 10 0 0
          }
        }
      }
    }
    JOINT RightArm
    {
      OFFSET -15 30 0
      CHANNELS 3 Zrotation Xrotation Yrotation
      JOINT RightForeArm
      {
        OFFSET -25 0 0
        CHANNELS 3 Zrotation Xrotation Yrotation
        JOINT RightHand
        {
          OFFSET -25 0 0
          CHANNELS 3 Zrotation Xrotation Yrotation
          End Site
          {
            OFFSET -10 0 0
          }
        }
      }
    }
  }
  JOINT LeftUpLeg
  {
    OFFSET 10 -10 0
    CHANNELS 3 Zrotation Xrotation Yrotation
    JOINT LeftLeg
    {
      OFFSET 0 -35 0
      CHANNELS 3 Zrotation Xrotation Yrotation
      JOINT LeftToe
      {
        OFFSET 0 -40 0
        CHANNELS 3 Zrotation Xrotation Yrotation
        JOINT LeftToeEnd
        {
          OFFSET 0 0 0
          CHANNELS 3 Zrotation Xrotation Yrotation
          End Site
          {
            OFFSET 0 0 15
          }
        }
      }
    }
  }
  JOINT RightUpLeg
  {
    OFFSET -10 -10 0
    CHANNELS 3 Zrotation Xrotation Yrotation
    JOINT RightLeg
    {
      OFFSET 0 -35 0
      CHANNELS 3 Zrotation Xrotation Yrotation
      JOINT RightToe
      {
        OFFSET 0 -40 0
        CHANNELS 3 Zrotation Xrotation Yrotation
        JOINT RightToeEnd
        {
          OFFSET 0 0 0
          CHANNELS 3 Zrotation Xrotation Yrotation
          End Site
          {
            OFFSET 0 0 15
          }
        }
      }
    }
  }
}
MOTION
Frames:	13
Frame Time:	0.0333333
-64.4122 84.8458 80.2793 2.19734 -2.81332 -48.2239 -0.800922 10.5893 -3.16737 -9.08037 -22.5783 -5.71137 10.4851 30.7455 -7.6252 -79.8918 28.373 -9.50795 17.8426 -5.52478 -29.116 -0.467116 6.77358 -1.82058 92.5577 7.51953 -0.844066 -14.7573 -3.04145 23.5336 0.203056 11.9645 -0.16627 -6.86094 5.5012 -3.4171 0.584103 34.1164 -1.11447 8.06576 -25.4157 -4.07502 -7.95139e-016 1.19271e-015 6.36111e-015 -1.43478 -34.018 2.37403 0.268546 37.7433 0.504545 -1.42764 -7.3176 -5.05839 -3.97569e-016 1.98785e-016 3.18055e-015 
-66.5222 85.0757 82.0578 1.85587 -2.42763 -48.8744 -0.0739704 10.3834 -2.98937 -9.38167 -22.6945 -5.65514 10.4894 31.0391 -7.57223 -81.5928 27.6872 -8.45919 17.4485 -5.21807 -28.2604 -0.468273 6.99161 -1.82142 92.3476 6.1919 -0.808767 -14.3754 -2.85516 22.8083 0.202246 12.8185 -0.166816 -5.991 4.91919 -3.15376 0.904417 37.8196 -1.19757 8.66742 -21.4825 -6.21007 2.38542e-015 -4.37326e-015 -0 -0.573826 -32.3762 2.37955 0.218521 38.365 0.608194 -1.74812 -8.52979 -4.31988 -5.96354e-016 3.97569e-016 -9.54166e-015 
-69.4011 85.5753 84.1723 1.06026 -1.93103 -49.0105 0.782843 10.514 -3.07971 -9.49582 -22.7105 -5.82777 10.7434 31.0709 -7.72602 -82.8898 27.364 -7.54632 16.7116 -4.68383 -26.7049 -0.507335 7.64229 -1.82408 92.3921 5.26326 -0.839735 -14.1174 -2.73238 22.3102 0.186875 13.3227 -0.170004 -4.17775 2.09722 -3.18095 1.48324 45.2056 -1.14669 10.2466 -16.2629 -9.55406 -4.8553e-031 -8.74653e-015 -3.18055e-015 1.21152 -28.9662 3.29143 0.147101 37.6961 0.797458 -2.26026 -9.96701 -5.0584 -2.98177e-016 -2.98177e-016 -6.36111e-015 
-72.8932 86.0943 86.6664 -0.415367 -0.777091 -48.4209 2.96532 10.7956 -3.30115 -10.3849 -22.8504 -6.31174 11.6781 31.0468 -8.70452 -83.9404 27.9268 -6.9327 15.8713 -4.13506 -25.0076 -0.365544 9.89274 -1.84852 92.0735 4.95578 -0.888523 -14.1044 -2.72822 22.295 0.184801 13.5995 -0.172877 -1.36136 -2.19819 -3.97533 2.11366 53.5295 -2.30898 15.3428 -11.6209 -14.5483 -1.59028e-015 -5.56597e-015 4.77083e-015 4.09026 -23.9557 4.12951 0.073256 35.5708 1.05942 -3.10563 -11.2442 -7.34547 -4.96962e-017 0 3.18055e-015 
-76.8239 86.2175 89.5428 -2.25138 0.240568 -47.8338 5.46045 11.7099 -3.41999 -11.5938 -23.1725 -6.72072 12.6036 30.8841 -9.54241 -84.9997 28.5271 -6.5553 14.9364 -3.5726 -23.1635 -0.394926 12.4775 -1.7282 91.2011 6.58633 -0.824663 -14.3756 -2.85446 22.7847 0.197735 12.8056 -0.156016 1.72933 -8.4697 -3.68229 3.08242 62.7383 -3.26993 12.3621 -8.08971 -16.2686 -8.82781e-032 7.95139e-016 6.36111e-015 6.7812 -18.6006 4.27936 0.000348781 34.1279 1.38189 -4.04683 -13.5877 -9.00273 3.03321e-021 3.03321e-021 -6.36111e-015 
-79.3414 86.2346 91.1677 -2.97856 0.503112 -47.513 6.11614 12.1931 -2.80399 -12.0312 -22.7836 -6.71978 13.0188 30.2404 -10.0051 -85.6222 27.9933 -6.10996 14.713 -3.43066 -22.7244 -0.380957 12.7908 -1.79367 90.5568 8.29817 -0.723253 -14.6151 -2.975 23.2515 0.19207 12.1143 -0.150086 3.57329 -13.3858 -1.63198 3.6915 67.7977 -4.22046 11.2841 -13.2462 -12.9279 -1.59028e-015 2.38542e-015 6.36111e-015 7.83295 -15.7632 3.85843 -0.0371672 33.8409 1.55016 -4.78769 -15.4506 -9.63864 -2.48481e-017 2.48481e-017 9.54166e-015 
-81.8109 86.21 92.8319 -3.26738 0.425703 -48.2032 5.95561 12.6055 -1.15594 -12.5463 -22.1793 -6.47908 13.859 29.5921 -10.6651 -86.9392 25.3819 -5.5103 14.4152 -3.23181 -22.1093 -0.465614 14.0075 -1.74298 89.7679 10.3619 -0.416824 -14.8675 -3.10428 23.7367 0.186184 11.5051 -0.148464 4.7648 -17.5455 1.04261 3.8236 70.2301 -4.57293 11.3798 -16.3519 -7.19261 3.18055e-015 -5.56597e-015 3.18055e-015 8.36286 -13.2357 3.91935 -0.0745372 33.7951 1.6964 -5.42268 -17.2477 -9.83729 -1.10348e-032 -1.98785e-016 -3.18055e-015 
-84.2084 86.1079 94.4932 -3.66916 0.853154 -48.9084 6.27162 12.724 0.127734 -12.5385 -21.9626 -5.98796 13.778 29.9391 -10.5401 -88.0866 23.3472 -4.71599 14.3532 -3.17356 -21.9749 -0.5297 13.5319 -1.77893 88.6631 11.9968 0.401429 -14.9078 -3.12426 23.806 0.183906 11.5328 -0.149382 6.59383 -21.962 3.42598 3.4775 70.8332 -4.43413 11.7527 -18.8967 -3.50805 -1.59028e-015 -1.59028e-015 3.18055e-015 9.2092 -10.7206 3.76397 -0.10677 33.2355 1.85514 -5.81154 -18.867 -9.62798 8.27607e-033 -1.49089e-016 3.18055e-015 
-86.5283 85.9434 96.1885 -3.98907 1.31299 -49.4292 6.77009 12.8315 1.33916 -13.2456 -21.6361 -5.64258 14.312 30.0859 -10.7523 -89.0293 22.2324 -3.93351 14.5369 -3.27583 -22.3599 -0.435039 11.5335 -1.85005 87.2393 13.6508 1.37804 -15.1374 -3.24542 24.2613 0.181498 11.1495 -0.151927 7.5403 -25.8637 4.47463 2.64071 69.048 -3.78418 12.4882 -21.1315 0.383142 -3.97569e-016 3.57812e-015 6.36111e-015 9.887 -8.09962 3.47234 -0.126691 32.3256 1.9491 -6.50921 -20.2454 -9.6596 -9.93923e-017 0 -3.18055e-015 
-88.7679 85.8034 97.9139 -4.18635 2.00565 -49.7624 7.3387 12.9203 2.55466 -13.1289 -21.9531 -5.23622 13.4871 30.4792 -10.5681 -89.7017 22.2584 -3.27237 14.6198 -3.33179 -22.5418 -0.459994 10.6202 -1.86244 85.8883 14.3757 2.6449 -15.4552 -3.40284 24.8777 0.181376 10.6022 -0.160865 8.13009 -29.147 4.65834 1.66641 64.8379 -3.00916 13.1174 -22.3834 3.26202 3.97569e-016 4.17448e-015 6.36111e-015 10.5589 -5.46907 3.01281 -0.134258 30.6625 2.06037 -6.91168 -21.2883 -9.575 2.20695e-032 -3.97569e-016 3.18055e-015 
-90.9889 85.7683 99.7237 -4.20059 2.80213 -50.0706 8.14709 12.6398 3.32657 -12.8965 -22.2325 -4.41935 12.0389 30.9375 -9.80313 -90.6148 22.0803 -2.31783 14.7393 -3.4115 -22.8301 -0.436269 10.8969 -1.84876 84.5344 14.8887 3.66484 -15.9485 -3.67113 25.8935 0.184095 9.55781 -0.181333 8.44343 -31.8524 4.2958 0.781423 58.8243 -2.3605 13.5824 -22.9786 5.7955 2.38542e-015 7.95139e-016 -0 11.1276 -2.33721 2.98874 -0.10525 27.7457 2.19306 -7.19085 -21.7491 -9.6364 2.98177e-016 0 -6.36111e-015 
-93.1834 85.6692 101.548 -3.8971 3.64269 -50.5502 8.63297 12.2389 4.07937 -13.4451 -22.5325 -4.28253 12.0633 30.8872 -9.74313 -91.4254 21.8214 -1.58191 14.7054 -3.39157 -22.7862 -0.482025 11.201 -1.8593 83.2755 15.5295 4.90876 -16.4684 -3.95604 26.9229 0.18982 8.42956 -0.172891 8.28568 -33.9906 2.33065 0.015195 51.4794 -1.88406 13.4489 -22.0452 7.35029 -0 0 3.18055e-015 11.5835 0.0864672 3.23261 -0.0739602 25.5296 2.29468 -7.42974 -22.0666 -9.95326 -2.75869e-032 -4.96962e-016 -3.18055e-015 
-95.381 85.4856 103.397 -3.44378 4.31159 -51.188 8.80363 11.8379 5.05494 -13.8889 -22.4337 -4.15063 12.1994 30.2647 -9.99492 -91.8946 21.5676 -1.15063 14.5614 -3.31051 -22.5168 -0.444129 11.1948 -1.88865 82.0569 16.5326 5.67767 -17.1926 -4.3766 28.3665 0.202138 7.17974 -0.154363 7.94206 -36.7312 -0.72184 -0.613645 45.7265 -2.5913 8.14003 -20.4955 8.22914 1.59028e-015 -1.59028e-015 9.54166e-015 11.6293 2.31024 2.93928 -0.0476762 23.6525 2.40205 -7.46966 -22.5394 -9.95391 0 0 -9.54166e-015 
